<svg width="244" height="336" viewBox="0 0 244 336" fill="none" xmlns="http://www.w3.org/2000/svg">

<path d="M77.625 32C81.6136 32 83.8636 29.5199 83.8636 25.429C83.8636 21.3636 81.6136 18.9091 77.804 18.9091H73.5852V32H77.625ZM75.1705 30.5938V20.3153H77.7017C80.7699 20.3153 82.3295 22.2585 82.3295 25.429C82.3295 28.625 80.7699 30.5938 77.5227 30.5938H75.1705ZM89.2074 32.2301C90.9205 32.2301 91.8153 31.3097 92.1222 30.6705H92.1989V32H93.7074V25.5312C93.7074 22.4119 91.3295 22.054 90.0767 22.054C88.5938 22.054 86.9062 22.5653 86.1392 24.3551L87.571 24.8665C87.9034 24.1506 88.6896 23.3835 90.1278 23.3835C91.5149 23.3835 92.1989 24.1186 92.1989 25.3778V25.429C92.1989 26.1577 91.4574 26.0938 89.6676 26.3239C87.8459 26.5604 85.858 26.9631 85.858 29.2131C85.858 31.1307 87.3409 32.2301 89.2074 32.2301ZM89.4375 30.875C88.2358 30.875 87.3665 30.3381 87.3665 29.2898C87.3665 28.1392 88.4148 27.7812 89.5909 27.6278C90.2301 27.5511 91.9432 27.3722 92.1989 27.0653V28.446C92.1989 29.6733 91.2273 30.875 89.4375 30.875ZM100.731 22.1818H98.6341V19.8295H97.1255V22.1818H95.6426V23.4602H97.1255V29.5966C97.1255 31.3097 98.5062 32.1278 99.7846 32.1278C100.347 32.1278 100.705 32.0256 100.91 31.9489L100.603 30.5938C100.475 30.6193 100.27 30.6705 99.938 30.6705C99.2733 30.6705 98.6341 30.4659 98.6341 29.1875V23.4602H100.731V22.1818ZM105.889 32.2301C107.602 32.2301 108.497 31.3097 108.804 30.6705H108.881V32H110.389V25.5312C110.389 22.4119 108.011 22.054 106.758 22.054C105.275 22.054 103.588 22.5653 102.821 24.3551L104.253 24.8665C104.585 24.1506 105.371 23.3835 106.809 23.3835C108.197 23.3835 108.881 24.1186 108.881 25.3778V25.429C108.881 26.1577 108.139 26.0938 106.349 26.3239C104.528 26.5604 102.54 26.9631 102.54 29.2131C102.54 31.1307 104.023 32.2301 105.889 32.2301ZM106.119 30.875C104.917 30.875 104.048 30.3381 104.048 29.2898C104.048 28.1392 105.096 27.7812 106.273 27.6278C106.912 27.5511 108.625 27.3722 108.881 27.0653V28.446C108.881 29.6733 107.909 30.875 106.119 30.875ZM121.912 32.2045C123.804 32.2045 124.444 31.0284 124.776 30.4915H124.955V32H126.412V18.9091H124.904V23.7415H124.776C124.444 23.2301 123.855 22.054 121.938 22.054C119.458 22.054 117.745 24.0227 117.745 27.1165C117.745 30.2358 119.458 32.2045 121.912 32.2045ZM122.117 30.8494C120.225 30.8494 119.253 29.1875 119.253 27.0909C119.253 25.0199 120.199 23.4091 122.117 23.4091C123.958 23.4091 124.929 24.892 124.929 27.0909C124.929 29.3153 123.932 30.8494 122.117 30.8494ZM129.385 32H130.893V22.1818H129.385V32ZM130.152 20.5455C130.74 20.5455 131.225 20.0852 131.225 19.5227C131.225 18.9602 130.74 18.5 130.152 18.5C129.564 18.5 129.078 18.9602 129.078 19.5227C129.078 20.0852 129.564 20.5455 130.152 20.5455ZM133.656 32H135.165V25.7869C135.165 24.4574 136.213 23.4858 137.645 23.4858C138.047 23.4858 138.463 23.5625 138.565 23.5881V22.054C138.393 22.0412 137.996 22.0284 137.773 22.0284C136.596 22.0284 135.574 22.6932 135.216 23.6648H135.113V22.1818H133.656V32ZM140.353 32H141.862V22.1818H140.353V32ZM141.12 20.5455C141.708 20.5455 142.194 20.0852 142.194 19.5227C142.194 18.9602 141.708 18.5 141.12 18.5C140.532 18.5 140.047 18.9602 140.047 19.5227C140.047 20.0852 140.532 20.5455 141.12 20.5455Z" fill="black"/>
<path d="M74.1222 128L75.4389 124.293H80.7315L82.0483 128H83.7102L78.9034 114.909H77.267L72.4602 128H74.1222ZM75.9375 122.886L78.0341 116.98H78.1364L80.233 122.886H75.9375ZM87.0533 114.909H85.5447V128H87.0533V114.909ZM92.7054 128.23C94.4185 128.23 95.3134 127.31 95.6202 126.67H95.6969V128H97.2054V121.531C97.2054 118.412 94.8276 118.054 93.5748 118.054C92.0918 118.054 90.4043 118.565 89.6373 120.355L91.0691 120.866C91.4015 120.151 92.1877 119.384 93.6259 119.384C95.013 119.384 95.6969 120.119 95.6969 121.378V121.429C95.6969 122.158 94.9554 122.094 93.1657 122.324C91.3439 122.56 89.356 122.963 89.356 125.213C89.356 127.131 90.839 128.23 92.7054 128.23ZM92.9355 126.875C91.7338 126.875 90.8645 126.338 90.8645 125.29C90.8645 124.139 91.9128 123.781 93.089 123.628C93.7282 123.551 95.4412 123.372 95.6969 123.065V124.446C95.6969 125.673 94.7253 126.875 92.9355 126.875ZM99.9588 128H101.467V121.864C101.467 120.425 102.516 119.409 103.692 119.409C104.836 119.409 105.635 120.157 105.635 121.276V128H107.169V121.608C107.169 120.342 107.962 119.409 109.342 119.409C110.416 119.409 111.337 119.978 111.337 121.429V128H112.845V121.429C112.845 119.121 111.605 118.054 109.854 118.054C108.447 118.054 107.418 118.7 106.913 119.716H106.811C106.325 118.668 105.469 118.054 104.178 118.054C102.899 118.054 101.953 118.668 101.544 119.716H101.416V118.182H99.9588V128ZM118.493 128.23C120.206 128.23 121.1 127.31 121.407 126.67H121.484V128H122.993V121.531C122.993 118.412 120.615 118.054 119.362 118.054C117.879 118.054 116.191 118.565 115.424 120.355L116.856 120.866C117.189 120.151 117.975 119.384 119.413 119.384C120.8 119.384 121.484 120.119 121.484 121.378V121.429C121.484 122.158 120.743 122.094 118.953 122.324C117.131 122.56 115.143 122.963 115.143 125.213C115.143 127.131 116.626 128.23 118.493 128.23ZM118.723 126.875C117.521 126.875 116.652 126.338 116.652 125.29C116.652 124.139 117.7 123.781 118.876 123.628C119.515 123.551 121.228 123.372 121.484 123.065V124.446C121.484 125.673 120.512 126.875 118.723 126.875ZM130.016 118.182H127.919V115.83H126.411V118.182H124.928V119.46H126.411V125.597C126.411 127.31 127.791 128.128 129.07 128.128C129.632 128.128 129.99 128.026 130.195 127.949L129.888 126.594C129.76 126.619 129.556 126.67 129.223 126.67C128.558 126.67 127.919 126.466 127.919 125.188V119.46H130.016V118.182Z" fill="black"/>
<circle cx="24" cy="24" r="22.5" stroke="#FD6A02" stroke-width="3"/>
<circle cx="24" cy="121" r="22.5" fill="#FD6A02" stroke="#FD6A02" stroke-width="3"/>
<path d="M77.625 224C81.6136 224 83.8636 221.52 83.8636 217.429C83.8636 213.364 81.6136 210.909 77.804 210.909H73.5852V224H77.625ZM75.1705 222.594V212.315H77.7017C80.7699 212.315 82.3295 214.259 82.3295 217.429C82.3295 220.625 80.7699 222.594 77.5227 222.594H75.1705ZM89.2074 224.23C90.9205 224.23 91.8153 223.31 92.1222 222.67H92.1989V224H93.7074V217.531C93.7074 214.412 91.3295 214.054 90.0767 214.054C88.5938 214.054 86.9062 214.565 86.1392 216.355L87.571 216.866C87.9034 216.151 88.6896 215.384 90.1278 215.384C91.5149 215.384 92.1989 216.119 92.1989 217.378V217.429C92.1989 218.158 91.4574 218.094 89.6676 218.324C87.8459 218.56 85.858 218.963 85.858 221.213C85.858 223.131 87.3409 224.23 89.2074 224.23ZM89.4375 222.875C88.2358 222.875 87.3665 222.338 87.3665 221.29C87.3665 220.139 88.4148 219.781 89.5909 219.628C90.2301 219.551 91.9432 219.372 92.1989 219.065V220.446C92.1989 221.673 91.2273 222.875 89.4375 222.875ZM100.731 214.182H98.6341V211.83H97.1255V214.182H95.6426V215.46H97.1255V221.597C97.1255 223.31 98.5062 224.128 99.7846 224.128C100.347 224.128 100.705 224.026 100.91 223.949L100.603 222.594C100.475 222.619 100.27 222.67 99.938 222.67C99.2733 222.67 98.6341 222.466 98.6341 221.188V215.46H100.731V214.182ZM105.889 224.23C107.602 224.23 108.497 223.31 108.804 222.67H108.881V224H110.389V217.531C110.389 214.412 108.011 214.054 106.758 214.054C105.275 214.054 103.588 214.565 102.821 216.355L104.253 216.866C104.585 216.151 105.371 215.384 106.809 215.384C108.197 215.384 108.881 216.119 108.881 217.378V217.429C108.881 218.158 108.139 218.094 106.349 218.324C104.528 218.56 102.54 218.963 102.54 221.213C102.54 223.131 104.023 224.23 105.889 224.23ZM106.119 222.875C104.917 222.875 104.048 222.338 104.048 221.29C104.048 220.139 105.096 219.781 106.273 219.628C106.912 219.551 108.625 219.372 108.881 219.065V220.446C108.881 221.673 107.909 222.875 106.119 222.875ZM122.194 224.205C124.853 224.205 126.642 222.185 126.642 219.142C126.642 216.074 124.853 214.054 122.194 214.054C119.534 214.054 117.745 216.074 117.745 219.142C117.745 222.185 119.534 224.205 122.194 224.205ZM122.194 222.849C120.174 222.849 119.253 221.111 119.253 219.142C119.253 217.173 120.174 215.409 122.194 215.409C124.213 215.409 125.134 217.173 125.134 219.142C125.134 221.111 124.213 222.849 122.194 222.849ZM128.945 224H130.454V217.787C130.454 216.457 131.502 215.486 132.934 215.486C133.336 215.486 133.752 215.562 133.854 215.588V214.054C133.682 214.041 133.285 214.028 133.062 214.028C131.885 214.028 130.863 214.693 130.505 215.665H130.403V214.182H128.945V224ZM138.532 224.23C140.245 224.23 141.14 223.31 141.446 222.67H141.523V224H143.032V217.531C143.032 214.412 140.654 214.054 139.401 214.054C137.918 214.054 136.23 214.565 135.463 216.355L136.895 216.866C137.228 216.151 138.014 215.384 139.452 215.384C140.839 215.384 141.523 216.119 141.523 217.378V217.429C141.523 218.158 140.782 218.094 138.992 218.324C137.17 218.56 135.182 218.963 135.182 221.213C135.182 223.131 136.665 224.23 138.532 224.23ZM138.762 222.875C137.56 222.875 136.691 222.338 136.691 221.29C136.691 220.139 137.739 219.781 138.915 219.628C139.554 219.551 141.267 219.372 141.523 219.065V220.446C141.523 221.673 140.551 222.875 138.762 222.875ZM147.294 218.094C147.294 216.381 148.355 215.409 149.799 215.409C151.199 215.409 152.049 216.323 152.049 217.864V224H153.558V217.761C153.558 215.256 152.222 214.054 150.234 214.054C148.751 214.054 147.83 214.719 147.37 215.716H147.242V214.182H145.785V224H147.294V218.094ZM160.277 227.886C162.63 227.886 164.522 226.812 164.522 224.281V214.182H163.064V215.741H162.911C162.578 215.23 161.965 214.054 160.047 214.054C157.567 214.054 155.854 216.023 155.854 219.04C155.854 222.108 157.644 223.847 160.022 223.847C161.939 223.847 162.553 222.722 162.885 222.185H163.013V224.179C163.013 225.815 161.863 226.557 160.277 226.557C158.494 226.557 157.868 225.617 157.465 225.074L156.263 225.918C156.877 226.947 158.085 227.886 160.277 227.886ZM160.226 222.491C158.334 222.491 157.363 221.06 157.363 219.014C157.363 217.02 158.309 215.409 160.226 215.409C162.067 215.409 163.039 216.892 163.039 219.014C163.039 221.188 162.042 222.491 160.226 222.491ZM176.615 214.182H174.519V211.83H173.01V214.182H171.527V215.46H173.01V221.597C173.01 223.31 174.391 224.128 175.669 224.128C176.232 224.128 176.59 224.026 176.794 223.949L176.488 222.594C176.36 222.619 176.155 222.67 175.823 222.67C175.158 222.67 174.519 222.466 174.519 221.188V215.46H176.615V214.182ZM185.072 219.986C185.072 221.827 183.666 222.67 182.541 222.67C181.288 222.67 180.393 221.75 180.393 220.318V214.182H178.885V220.42C178.885 222.926 180.214 224.128 182.055 224.128C183.538 224.128 184.51 223.335 184.97 222.338H185.072V224H186.581V214.182H185.072V219.986ZM192.233 224.23C193.946 224.23 194.841 223.31 195.148 222.67H195.224V224H196.733V217.531C196.733 214.412 194.355 214.054 193.102 214.054C191.619 214.054 189.932 214.565 189.165 216.355L190.596 216.866C190.929 216.151 191.715 215.384 193.153 215.384C194.54 215.384 195.224 216.119 195.224 217.378V217.429C195.224 218.158 194.483 218.094 192.693 218.324C190.871 218.56 188.883 218.963 188.883 221.213C188.883 223.131 190.366 224.23 192.233 224.23ZM192.463 222.875C191.261 222.875 190.392 222.338 190.392 221.29C190.392 220.139 191.44 219.781 192.616 219.628C193.256 219.551 194.969 219.372 195.224 219.065V220.446C195.224 221.673 194.253 222.875 192.463 222.875Z" fill="black"/>
<circle cx="24" cy="216" r="22.5" stroke="#FD6A02" stroke-width="3"/>
<path d="M73.5852 320H81.2557V318.594H75.1705V306.909H73.5852V320ZM87.6222 320.205C89.6165 320.205 91.0739 319.207 91.5341 317.724L90.0767 317.315C89.6932 318.338 88.8047 318.849 87.6222 318.849C85.8516 318.849 84.6307 317.705 84.5604 315.602H91.6875V314.963C91.6875 311.307 89.5142 310.054 87.4688 310.054C84.8097 310.054 83.0455 312.151 83.0455 315.168C83.0455 318.185 84.7841 320.205 87.6222 320.205ZM84.5604 314.298C84.6626 312.771 85.7429 311.409 87.4688 311.409C89.1051 311.409 90.1534 312.636 90.1534 314.298H84.5604ZM93.9822 320H95.4908V313.864C95.4908 312.425 96.5391 311.409 97.7152 311.409C98.8594 311.409 99.6584 312.157 99.6584 313.276V320H101.192V313.608C101.192 312.342 101.985 311.409 103.366 311.409C104.44 311.409 105.36 311.978 105.36 313.429V320H106.869V313.429C106.869 311.121 105.629 310.054 103.877 310.054C102.471 310.054 101.442 310.7 100.937 311.716H100.835C100.349 310.668 99.4922 310.054 98.201 310.054C96.9226 310.054 95.9766 310.668 95.5675 311.716H95.4396V310.182H93.9822V320ZM109.831 320H111.289V318.491H111.468C111.8 319.028 112.439 320.205 114.331 320.205C116.786 320.205 118.499 318.236 118.499 315.116C118.499 312.023 116.786 310.054 114.306 310.054C112.388 310.054 111.8 311.23 111.468 311.741H111.34V306.909H109.831V320ZM111.314 315.091C111.314 312.892 112.286 311.409 114.127 311.409C116.044 311.409 116.99 313.02 116.99 315.091C116.99 317.188 116.019 318.849 114.127 318.849C112.311 318.849 111.314 317.315 111.314 315.091ZM123.696 320.23C125.409 320.23 126.304 319.31 126.61 318.67H126.687V320H128.196V313.531C128.196 310.412 125.818 310.054 124.565 310.054C123.082 310.054 121.395 310.565 120.627 312.355L122.059 312.866C122.392 312.151 123.178 311.384 124.616 311.384C126.003 311.384 126.687 312.119 126.687 313.378V313.429C126.687 314.158 125.946 314.094 124.156 314.324C122.334 314.56 120.346 314.963 120.346 317.213C120.346 319.131 121.829 320.23 123.696 320.23ZM123.926 318.875C122.724 318.875 121.855 318.338 121.855 317.29C121.855 316.139 122.903 315.781 124.079 315.628C124.718 315.551 126.431 315.372 126.687 315.065V316.446C126.687 317.673 125.716 318.875 123.926 318.875ZM130.949 320H132.458V313.787C132.458 312.457 133.506 311.486 134.938 311.486C135.34 311.486 135.756 311.562 135.858 311.588V310.054C135.686 310.041 135.289 310.028 135.066 310.028C133.889 310.028 132.867 310.693 132.509 311.665H132.406V310.182H130.949V320ZM142.913 320H144.499V315.756L146.135 313.915L150.686 320H152.604L147.107 312.815L152.604 306.909H150.533L144.652 313.403H144.499V306.909H142.913V320ZM157.719 320.205C160.378 320.205 162.168 318.185 162.168 315.142C162.168 312.074 160.378 310.054 157.719 310.054C155.06 310.054 153.27 312.074 153.27 315.142C153.27 318.185 155.06 320.205 157.719 320.205ZM157.719 318.849C155.699 318.849 154.779 317.111 154.779 315.142C154.779 313.173 155.699 311.409 157.719 311.409C159.739 311.409 160.659 313.173 160.659 315.142C160.659 317.111 159.739 318.849 157.719 318.849ZM164.471 320H165.979V313.864C165.979 312.425 167.027 311.409 168.203 311.409C169.348 311.409 170.147 312.157 170.147 313.276V320H171.681V313.608C171.681 312.342 172.473 311.409 173.854 311.409C174.928 311.409 175.848 311.978 175.848 313.429V320H177.357V313.429C177.357 311.121 176.117 310.054 174.365 310.054C172.959 310.054 171.93 310.7 171.425 311.716H171.323C170.837 310.668 169.98 310.054 168.689 310.054C167.411 310.054 166.465 310.668 166.056 311.716H165.928V310.182H164.471V320ZM180.115 320H181.624V310.182H180.115V320ZM180.882 308.545C181.47 308.545 181.956 308.085 181.956 307.523C181.956 306.96 181.47 306.5 180.882 306.5C180.294 306.5 179.808 306.96 179.808 307.523C179.808 308.085 180.294 308.545 180.882 308.545ZM188.656 310.182H186.56V307.83H185.051V310.182H183.568V311.46H185.051V317.597C185.051 319.31 186.432 320.128 187.71 320.128C188.273 320.128 188.631 320.026 188.835 319.949L188.529 318.594C188.401 318.619 188.196 318.67 187.864 318.67C187.199 318.67 186.56 318.466 186.56 317.188V311.46H188.656V310.182ZM190.926 320H192.434V313.864C192.434 312.425 193.482 311.409 194.659 311.409C195.803 311.409 196.602 312.157 196.602 313.276V320H198.136V313.608C198.136 312.342 198.928 311.409 200.309 311.409C201.383 311.409 202.303 311.978 202.303 313.429V320H203.812V313.429C203.812 311.121 202.572 310.054 200.82 310.054C199.414 310.054 198.385 310.7 197.88 311.716H197.778C197.292 310.668 196.436 310.054 195.144 310.054C193.866 310.054 192.92 310.668 192.511 311.716H192.383V310.182H190.926V320ZM210.687 320.205C212.681 320.205 214.138 319.207 214.599 317.724L213.141 317.315C212.758 318.338 211.869 318.849 210.687 318.849C208.916 318.849 207.695 317.705 207.625 315.602H214.752V314.963C214.752 311.307 212.579 310.054 210.533 310.054C207.874 310.054 206.11 312.151 206.11 315.168C206.11 318.185 207.849 320.205 210.687 320.205ZM207.625 314.298C207.727 312.771 208.807 311.409 210.533 311.409C212.17 311.409 213.218 312.636 213.218 314.298H207.625ZM218.555 314.094C218.555 312.381 219.616 311.409 221.061 311.409C222.461 311.409 223.311 312.323 223.311 313.864V320H224.819V313.761C224.819 311.256 223.483 310.054 221.496 310.054C220.013 310.054 219.092 310.719 218.632 311.716H218.504V310.182H217.047V320H218.555V314.094Z" fill="black"/>
<circle cx="24" cy="312" r="22.5" stroke="#FD6A02" stroke-width="3"/>
<line x1="25.5" y1="45" x2="25.5" y2="98" stroke="#FD6A02" stroke-width="3"/>
<line x1="25.5" y1="142" x2="25.5" y2="195" stroke="#FD6A02" stroke-width="3"/>
<line x1="25.5" y1="238" x2="25.5" y2="291" stroke="#FD6A02" stroke-width="3"/>
</svg>
