<svg width="658" height="84" viewBox="0 0 658 84" fill="none" xmlns="http://www.w3.org/2000/svg">
<path d="M7.50293 80C11.4916 80 13.7416 77.5199 13.7416 73.429C13.7416 69.3636 11.4916 66.9091 7.68191 66.9091H3.46316V80H7.50293ZM5.04838 78.5938V68.3153H7.57963C10.6478 68.3153 12.2075 70.2585 12.2075 73.429C12.2075 76.625 10.6478 78.5938 7.40066 78.5938H5.04838ZM19.0853 80.2301C20.7984 80.2301 21.6933 79.3097 22.0001 78.6705H22.0768V80H23.5853V73.5312C23.5853 70.4119 21.2075 70.054 19.9546 70.054C18.4717 70.054 16.7842 70.5653 16.0171 72.3551L17.449 72.8665C17.7813 72.1506 18.5676 71.3835 20.0058 71.3835C21.3928 71.3835 22.0768 72.1186 22.0768 73.3778V73.429C22.0768 74.1577 21.3353 74.0938 19.5455 74.3239C17.7238 74.5604 15.7359 74.9631 15.7359 77.2131C15.7359 79.1307 17.2188 80.2301 19.0853 80.2301ZM19.3154 78.875C18.1137 78.875 17.2444 78.3381 17.2444 77.2898C17.2444 76.1392 18.2927 75.7812 19.4688 75.6278C20.108 75.5511 21.8211 75.3722 22.0768 75.0653V76.446C22.0768 77.6733 21.1052 78.875 19.3154 78.875ZM30.6086 70.1818H28.512V67.8295H27.0035V70.1818H25.5205V71.4602H27.0035V77.5966C27.0035 79.3097 28.3841 80.1278 29.6626 80.1278C30.2251 80.1278 30.583 80.0256 30.7876 79.9489L30.4807 78.5938C30.3529 78.6193 30.1483 78.6705 29.816 78.6705C29.1512 78.6705 28.512 78.4659 28.512 77.1875V71.4602H30.6086V70.1818ZM35.767 80.2301C37.48 80.2301 38.3749 79.3097 38.6817 78.6705H38.7584V80H40.267V73.5312C40.267 70.4119 37.8891 70.054 36.6363 70.054C35.1533 70.054 33.4658 70.5653 32.6988 72.3551L34.1306 72.8665C34.463 72.1506 35.2492 71.3835 36.6874 71.3835C38.0745 71.3835 38.7584 72.1186 38.7584 73.3778V73.429C38.7584 74.1577 38.017 74.0938 36.2272 74.3239C34.4055 74.5604 32.4175 74.9631 32.4175 77.2131C32.4175 79.1307 33.9005 80.2301 35.767 80.2301ZM35.9971 78.875C34.7954 78.875 33.926 78.3381 33.926 77.2898C33.926 76.1392 34.9743 75.7812 36.1505 75.6278C36.7897 75.5511 38.5028 75.3722 38.7584 75.0653V76.446C38.7584 77.6733 37.7868 78.875 35.9971 78.875ZM51.7902 80.2045C53.6823 80.2045 54.3215 79.0284 54.6539 78.4915H54.8328V80H56.2902V66.9091H54.7817V71.7415H54.6539C54.3215 71.2301 53.7334 70.054 51.8158 70.054C49.3357 70.054 47.6226 72.0227 47.6226 75.1165C47.6226 78.2358 49.3357 80.2045 51.7902 80.2045ZM51.9948 78.8494C50.1027 78.8494 49.1311 77.1875 49.1311 75.0909C49.1311 73.0199 50.0771 71.4091 51.9948 71.4091C53.8357 71.4091 54.8073 72.892 54.8073 75.0909C54.8073 77.3153 53.8101 78.8494 51.9948 78.8494ZM59.2625 80H60.771V70.1818H59.2625V80ZM60.0296 68.5455C60.6176 68.5455 61.1034 68.0852 61.1034 67.5227C61.1034 66.9602 60.6176 66.5 60.0296 66.5C59.4415 66.5 58.9557 66.9602 58.9557 67.5227C58.9557 68.0852 59.4415 68.5455 60.0296 68.5455ZM63.534 80H65.0425V73.7869C65.0425 72.4574 66.0908 71.4858 67.5226 71.4858C67.9253 71.4858 68.3408 71.5625 68.4431 71.5881V70.054C68.2705 70.0412 67.8742 70.0284 67.6505 70.0284C66.4743 70.0284 65.4516 70.6932 65.0937 71.6648H64.9914V70.1818H63.534V80ZM70.2313 80H71.7398V70.1818H70.2313V80ZM70.9983 68.5455C71.5864 68.5455 72.0722 68.0852 72.0722 67.5227C72.0722 66.9602 71.5864 66.5 70.9983 66.5C70.4102 66.5 69.9244 66.9602 69.9244 67.5227C69.9244 68.0852 70.4102 68.5455 70.9983 68.5455Z" fill="black"/>
<path d="M189.17 80L190.487 76.2926H195.779L197.096 80H198.758L193.951 66.9091H192.315L187.508 80H189.17ZM190.985 74.8864L193.082 68.9801H193.184L195.281 74.8864H190.985ZM202.101 66.9091H200.593V80H202.101V66.9091ZM207.753 80.2301C209.466 80.2301 210.361 79.3097 210.668 78.6705H210.745V80H212.253V73.5312C212.253 70.4119 209.875 70.054 208.623 70.054C207.14 70.054 205.452 70.5653 204.685 72.3551L206.117 72.8665C206.449 72.1506 207.236 71.3835 208.674 71.3835C210.061 71.3835 210.745 72.1186 210.745 73.3778V73.429C210.745 74.1577 210.003 74.0938 208.214 74.3239C206.392 74.5604 204.404 74.9631 204.404 77.2131C204.404 79.1307 205.887 80.2301 207.753 80.2301ZM207.983 78.875C206.782 78.875 205.912 78.3381 205.912 77.2898C205.912 76.1392 206.961 75.7812 208.137 75.6278C208.776 75.5511 210.489 75.3722 210.745 75.0653V76.446C210.745 77.6733 209.773 78.875 207.983 78.875ZM215.007 80H216.515V73.8636C216.515 72.4254 217.563 71.4091 218.74 71.4091C219.884 71.4091 220.683 72.157 220.683 73.2756V80H222.217V73.608C222.217 72.3423 223.009 71.4091 224.39 71.4091C225.464 71.4091 226.384 71.978 226.384 73.429V80H227.893V73.429C227.893 71.1214 226.653 70.054 224.902 70.054C223.495 70.054 222.466 70.6996 221.961 71.7159H221.859C221.373 70.6676 220.517 70.054 219.225 70.054C217.947 70.054 217.001 70.6676 216.592 71.7159H216.464V70.1818H215.007V80ZM233.54 80.2301C235.253 80.2301 236.148 79.3097 236.455 78.6705H236.532V80H238.04V73.5312C238.04 70.4119 235.663 70.054 234.41 70.054C232.927 70.054 231.239 70.5653 230.472 72.3551L231.904 72.8665C232.236 72.1506 233.023 71.3835 234.461 71.3835C235.848 71.3835 236.532 72.1186 236.532 73.3778V73.429C236.532 74.1577 235.79 74.0938 234.001 74.3239C232.179 74.5604 230.191 74.9631 230.191 77.2131C230.191 79.1307 231.674 80.2301 233.54 80.2301ZM233.771 78.875C232.569 78.875 231.699 78.3381 231.699 77.2898C231.699 76.1392 232.748 75.7812 233.924 75.6278C234.563 75.5511 236.276 75.3722 236.532 75.0653V76.446C236.532 77.6733 235.56 78.875 233.771 78.875ZM245.064 70.1818H242.967V67.8295H241.459V70.1818H239.976V71.4602H241.459V77.5966C241.459 79.3097 242.839 80.1278 244.118 80.1278C244.68 80.1278 245.038 80.0256 245.243 79.9489L244.936 78.5938C244.808 78.6193 244.603 78.6705 244.271 78.6705C243.606 78.6705 242.967 78.4659 242.967 77.1875V71.4602H245.064V70.1818Z" fill="black"/>
<path d="M335.572 80C339.561 80 341.811 77.5199 341.811 73.429C341.811 69.3636 339.561 66.9091 335.751 66.9091H331.532V80H335.572ZM333.118 78.5938V68.3153H335.649C338.717 68.3153 340.277 70.2585 340.277 73.429C340.277 76.625 338.717 78.5938 335.47 78.5938H333.118ZM347.155 80.2301C348.868 80.2301 349.763 79.3097 350.069 78.6705H350.146V80H351.655V73.5312C351.655 70.4119 349.277 70.054 348.024 70.054C346.541 70.054 344.854 70.5653 344.086 72.3551L345.518 72.8665C345.851 72.1506 346.637 71.3835 348.075 71.3835C349.462 71.3835 350.146 72.1186 350.146 73.3778V73.429C350.146 74.1577 349.405 74.0938 347.615 74.3239C345.793 74.5604 343.805 74.9631 343.805 77.2131C343.805 79.1307 345.288 80.2301 347.155 80.2301ZM347.385 78.875C346.183 78.875 345.314 78.3381 345.314 77.2898C345.314 76.1392 346.362 75.7812 347.538 75.6278C348.177 75.5511 349.89 75.3722 350.146 75.0653V76.446C350.146 77.6733 349.175 78.875 347.385 78.875ZM358.678 70.1818H356.581V67.8295H355.073V70.1818H353.59V71.4602H355.073V77.5966C355.073 79.3097 356.453 80.1278 357.732 80.1278C358.294 80.1278 358.652 80.0256 358.857 79.9489L358.55 78.5938C358.422 78.6193 358.218 78.6705 357.885 78.6705C357.221 78.6705 356.581 78.4659 356.581 77.1875V71.4602H358.678V70.1818ZM363.836 80.2301C365.549 80.2301 366.444 79.3097 366.751 78.6705H366.828V80H368.336V73.5312C368.336 70.4119 365.958 70.054 364.706 70.054C363.223 70.054 361.535 70.5653 360.768 72.3551L362.2 72.8665C362.532 72.1506 363.319 71.3835 364.757 71.3835C366.144 71.3835 366.828 72.1186 366.828 73.3778V73.429C366.828 74.1577 366.086 74.0938 364.297 74.3239C362.475 74.5604 360.487 74.9631 360.487 77.2131C360.487 79.1307 361.97 80.2301 363.836 80.2301ZM364.066 78.875C362.865 78.875 361.995 78.3381 361.995 77.2898C361.995 76.1392 363.044 75.7812 364.22 75.6278C364.859 75.5511 366.572 75.3722 366.828 75.0653V76.446C366.828 77.6733 365.856 78.875 364.066 78.875ZM380.141 80.2045C382.8 80.2045 384.59 78.1847 384.59 75.142C384.59 72.0739 382.8 70.054 380.141 70.054C377.482 70.054 375.692 72.0739 375.692 75.142C375.692 78.1847 377.482 80.2045 380.141 80.2045ZM380.141 78.8494C378.121 78.8494 377.2 77.1108 377.2 75.142C377.2 73.1733 378.121 71.4091 380.141 71.4091C382.161 71.4091 383.081 73.1733 383.081 75.142C383.081 77.1108 382.161 78.8494 380.141 78.8494ZM386.892 80H388.401V73.7869C388.401 72.4574 389.449 71.4858 390.881 71.4858C391.284 71.4858 391.699 71.5625 391.801 71.5881V70.054C391.629 70.0412 391.233 70.0284 391.009 70.0284C389.833 70.0284 388.81 70.6932 388.452 71.6648H388.35V70.1818H386.892V80ZM396.479 80.2301C398.192 80.2301 399.087 79.3097 399.394 78.6705H399.47V80H400.979V73.5312C400.979 70.4119 398.601 70.054 397.348 70.054C395.865 70.054 394.178 70.5653 393.411 72.3551L394.843 72.8665C395.175 72.1506 395.961 71.3835 397.399 71.3835C398.786 71.3835 399.47 72.1186 399.47 73.3778V73.429C399.47 74.1577 398.729 74.0938 396.939 74.3239C395.117 74.5604 393.129 74.9631 393.129 77.2131C393.129 79.1307 394.612 80.2301 396.479 80.2301ZM396.709 78.875C395.507 78.875 394.638 78.3381 394.638 77.2898C394.638 76.1392 395.686 75.7812 396.862 75.6278C397.502 75.5511 399.215 75.3722 399.47 75.0653V76.446C399.47 77.6733 398.499 78.875 396.709 78.875ZM405.241 74.0938C405.241 72.3807 406.302 71.4091 407.746 71.4091C409.146 71.4091 409.996 72.3232 409.996 73.8636V80H411.505V73.7614C411.505 71.2557 410.169 70.054 408.181 70.054C406.698 70.054 405.778 70.7188 405.317 71.7159H405.19V70.1818H403.732V80H405.241V74.0938ZM418.225 83.8864C420.577 83.8864 422.469 82.8125 422.469 80.2812V70.1818H421.012V71.7415H420.858C420.526 71.2301 419.912 70.054 417.994 70.054C415.514 70.054 413.801 72.0227 413.801 75.0398C413.801 78.108 415.591 79.8466 417.969 79.8466C419.887 79.8466 420.5 78.7216 420.833 78.1847H420.96V80.179C420.96 81.8153 419.81 82.5568 418.225 82.5568C416.441 82.5568 415.815 81.6172 415.412 81.0739L414.21 81.9176C414.824 82.9467 416.032 83.8864 418.225 83.8864ZM418.173 78.4915C416.281 78.4915 415.31 77.0597 415.31 75.0142C415.31 73.0199 416.256 71.4091 418.173 71.4091C420.014 71.4091 420.986 72.892 420.986 75.0142C420.986 77.1875 419.989 78.4915 418.173 78.4915ZM434.563 70.1818H432.466V67.8295H430.958V70.1818H429.475V71.4602H430.958V77.5966C430.958 79.3097 432.338 80.1278 433.617 80.1278C434.179 80.1278 434.537 80.0256 434.742 79.9489L434.435 78.5938C434.307 78.6193 434.102 78.6705 433.77 78.6705C433.105 78.6705 432.466 78.4659 432.466 77.1875V71.4602H434.563V70.1818ZM443.019 75.9858C443.019 77.8267 441.613 78.6705 440.488 78.6705C439.235 78.6705 438.34 77.75 438.34 76.3182V70.1818H436.832V76.4205C436.832 78.9261 438.161 80.1278 440.002 80.1278C441.485 80.1278 442.457 79.3352 442.917 78.3381H443.019V80H444.528V70.1818H443.019V75.9858ZM450.18 80.2301C451.893 80.2301 452.788 79.3097 453.095 78.6705H453.172V80H454.68V73.5312C454.68 70.4119 452.302 70.054 451.049 70.054C449.566 70.054 447.879 70.5653 447.112 72.3551L448.544 72.8665C448.876 72.1506 449.662 71.3835 451.1 71.3835C452.488 71.3835 453.172 72.1186 453.172 73.3778V73.429C453.172 74.1577 452.43 74.0938 450.64 74.3239C448.819 74.5604 446.831 74.9631 446.831 77.2131C446.831 79.1307 448.314 80.2301 450.18 80.2301ZM450.41 78.875C449.208 78.875 448.339 78.3381 448.339 77.2898C448.339 76.1392 449.387 75.7812 450.564 75.6278C451.203 75.5511 452.916 75.3722 453.172 75.0653V76.446C453.172 77.6733 452.2 78.875 450.41 78.875Z" fill="black"/>
<path d="M496.488 80H504.158V78.5938H498.073V66.9091H496.488V80ZM510.525 80.2045C512.519 80.2045 513.976 79.2074 514.436 77.7244L512.979 77.3153C512.596 78.3381 511.707 78.8494 510.525 78.8494C508.754 78.8494 507.533 77.7053 507.463 75.6023H514.59V74.9631C514.59 71.3068 512.417 70.054 510.371 70.054C507.712 70.054 505.948 72.1506 505.948 75.1676C505.948 78.1847 507.686 80.2045 510.525 80.2045ZM507.463 74.2983C507.565 72.7706 508.645 71.4091 510.371 71.4091C512.007 71.4091 513.056 72.6364 513.056 74.2983H507.463ZM516.885 80H518.393V73.8636C518.393 72.4254 519.441 71.4091 520.618 71.4091C521.762 71.4091 522.561 72.157 522.561 73.2756V80H524.095V73.608C524.095 72.3423 524.887 71.4091 526.268 71.4091C527.342 71.4091 528.262 71.978 528.262 73.429V80H529.771V73.429C529.771 71.1214 528.531 70.054 526.779 70.054C525.373 70.054 524.344 70.6996 523.839 71.7159H523.737C523.251 70.6676 522.395 70.054 521.103 70.054C519.825 70.054 518.879 70.6676 518.47 71.7159H518.342V70.1818H516.885V80ZM532.734 80H534.191V78.4915H534.37C534.702 79.0284 535.342 80.2045 537.234 80.2045C539.688 80.2045 541.401 78.2358 541.401 75.1165C541.401 72.0227 539.688 70.054 537.208 70.054C535.29 70.054 534.702 71.2301 534.37 71.7415H534.242V66.9091H532.734V80ZM534.217 75.0909C534.217 72.892 535.188 71.4091 537.029 71.4091C538.947 71.4091 539.893 73.0199 539.893 75.0909C539.893 77.1875 538.921 78.8494 537.029 78.8494C535.214 78.8494 534.217 77.3153 534.217 75.0909ZM546.598 80.2301C548.311 80.2301 549.206 79.3097 549.513 78.6705H549.589V80H551.098V73.5312C551.098 70.4119 548.72 70.054 547.467 70.054C545.984 70.054 544.297 70.5653 543.53 72.3551L544.962 72.8665C545.294 72.1506 546.08 71.3835 547.518 71.3835C548.906 71.3835 549.589 72.1186 549.589 73.3778V73.429C549.589 74.1577 548.848 74.0938 547.058 74.3239C545.237 74.5604 543.249 74.9631 543.249 77.2131C543.249 79.1307 544.732 80.2301 546.598 80.2301ZM546.828 78.875C545.626 78.875 544.757 78.3381 544.757 77.2898C544.757 76.1392 545.805 75.7812 546.982 75.6278C547.621 75.5511 549.334 75.3722 549.589 75.0653V76.446C549.589 77.6733 548.618 78.875 546.828 78.875ZM553.851 80H555.36V73.7869C555.36 72.4574 556.408 71.4858 557.84 71.4858C558.243 71.4858 558.658 71.5625 558.76 71.5881V70.054C558.588 70.0412 558.192 70.0284 557.968 70.0284C556.792 70.0284 555.769 70.6932 555.411 71.6648H555.309V70.1818H553.851V80ZM565.816 80H567.401V75.7557L569.037 73.9148L573.588 80H575.506L570.009 72.8153L575.506 66.9091H573.435L567.554 73.4034H567.401V66.9091H565.816V80ZM580.621 80.2045C583.28 80.2045 585.07 78.1847 585.07 75.142C585.07 72.0739 583.28 70.054 580.621 70.054C577.962 70.054 576.172 72.0739 576.172 75.142C576.172 78.1847 577.962 80.2045 580.621 80.2045ZM580.621 78.8494C578.601 78.8494 577.681 77.1108 577.681 75.142C577.681 73.1733 578.601 71.4091 580.621 71.4091C582.641 71.4091 583.562 73.1733 583.562 75.142C583.562 77.1108 582.641 78.8494 580.621 78.8494ZM587.373 80H588.881V73.8636C588.881 72.4254 589.93 71.4091 591.106 71.4091C592.25 71.4091 593.049 72.157 593.049 73.2756V80H594.583V73.608C594.583 72.3423 595.376 71.4091 596.756 71.4091C597.83 71.4091 598.751 71.978 598.751 73.429V80H600.259V73.429C600.259 71.1214 599.019 70.054 597.268 70.054C595.862 70.054 594.832 70.6996 594.327 71.7159H594.225C593.739 70.6676 592.883 70.054 591.592 70.054C590.313 70.054 589.367 70.6676 588.958 71.7159H588.83V70.1818H587.373V80ZM603.017 80H604.526V70.1818H603.017V80ZM603.784 68.5455C604.373 68.5455 604.858 68.0852 604.858 67.5227C604.858 66.9602 604.373 66.5 603.784 66.5C603.196 66.5 602.711 66.9602 602.711 67.5227C602.711 68.0852 603.196 68.5455 603.784 68.5455ZM611.559 70.1818H609.462V67.8295H607.954V70.1818H606.471V71.4602H607.954V77.5966C607.954 79.3097 609.334 80.1278 610.613 80.1278C611.175 80.1278 611.533 80.0256 611.738 79.9489L611.431 78.5938C611.303 78.6193 611.099 78.6705 610.766 78.6705C610.101 78.6705 609.462 78.4659 609.462 77.1875V71.4602H611.559V70.1818ZM613.828 80H615.336V73.8636C615.336 72.4254 616.385 71.4091 617.561 71.4091C618.705 71.4091 619.504 72.157 619.504 73.2756V80H621.038V73.608C621.038 72.3423 621.831 71.4091 623.211 71.4091C624.285 71.4091 625.206 71.978 625.206 73.429V80H626.714V73.429C626.714 71.1214 625.474 70.054 623.723 70.054C622.317 70.054 621.287 70.6996 620.782 71.7159H620.68C620.194 70.6676 619.338 70.054 618.047 70.054C616.768 70.054 615.822 70.6676 615.413 71.7159H615.285V70.1818H613.828V80ZM633.589 80.2045C635.583 80.2045 637.041 79.2074 637.501 77.7244L636.044 77.3153C635.66 78.3381 634.771 78.8494 633.589 78.8494C631.818 78.8494 630.597 77.7053 630.527 75.6023H637.654V74.9631C637.654 71.3068 635.481 70.054 633.436 70.054C630.776 70.054 629.012 72.1506 629.012 75.1676C629.012 78.1847 630.751 80.2045 633.589 80.2045ZM630.527 74.2983C630.629 72.7706 631.71 71.4091 633.436 71.4091C635.072 71.4091 636.12 72.6364 636.12 74.2983H630.527ZM641.458 74.0938C641.458 72.3807 642.519 71.4091 643.963 71.4091C645.363 71.4091 646.213 72.3232 646.213 73.8636V80H647.722V73.7614C647.722 71.2557 646.386 70.054 644.398 70.054C642.915 70.054 641.994 70.7188 641.534 71.7159H641.406V70.1818H639.949V80H641.458V74.0938Z" fill="black"/>
<circle cx="41" cy="24" r="22.5" transform="rotate(-90 41 24)" stroke="#FD6A02" stroke-width="3"/>
<circle cx="217" cy="24" r="22.5" transform="rotate(-90 217 24)" stroke="#FD6A02" stroke-width="3"/>
<circle cx="393" cy="24" r="22.5" transform="rotate(-90 393 24)" stroke="#FD6A02" stroke-width="3"/>
<circle cx="572" cy="26" r="22.5" transform="rotate(-90 572 26)" fill="#FD6A02" stroke="#FD6A02" stroke-width="3"/>
<line x1="62" y1="24.5" x2="195" y2="24.5" stroke="#FD6A02" stroke-width="3"/>
<line x1="240" y1="24.5" x2="370" y2="24.5" stroke="#FD6A02" stroke-width="3"/>
<line x1="417" y1="24.5" x2="551" y2="24.5" stroke="#FD6A02" stroke-width="3"/>
</svg>
