<svg width="244" height="336" viewBox="0 0 244 336" fill="none" xmlns="http://www.w3.org/2000/svg">
<circle cx="24" cy="24" r="22.5" stroke="#FD6A02" stroke-width="3"/>
<circle cx="24" cy="121" r="22.5" fill="#FD6A02" stroke="#FD6A02" stroke-width="3"/>
<circle cx="24" cy="216" r="22.5" stroke="#FD6A02" stroke-width="3"/>
<circle cx="24" cy="312" r="22.5" stroke="#FD6A02" stroke-width="3"/>
<line x1="25.5" y1="45" x2="25.5" y2="98" stroke="#FD6A02" stroke-width="3"/>
<line x1="25.5" y1="142" x2="25.5" y2="195" stroke="#FD6A02" stroke-width="3"/>
<line x1="25.5" y1="238" x2="25.5" y2="291" stroke="#FD6A02" stroke-width="3"/>
<path d="M77.625 32C81.6136 32 83.8636 29.5199 83.8636 25.429C83.8636 21.3636 81.6136 18.9091 77.804 18.9091H73.5852V32H77.625ZM75.1705 30.5938V20.3153H77.7017C80.7699 20.3153 82.3295 22.2585 82.3295 25.429C82.3295 28.625 80.7699 30.5938 77.5227 30.5938H75.1705ZM89.2074 32.2301C90.9205 32.2301 91.8153 31.3097 92.1222 30.6705H92.1989V32H93.7074V25.5312C93.7074 22.4119 91.3295 22.054 90.0767 22.054C88.5938 22.054 86.9062 22.5653 86.1392 24.3551L87.571 24.8665C87.9034 24.1506 88.6896 23.3835 90.1278 23.3835C91.5149 23.3835 92.1989 24.1186 92.1989 25.3778V25.429C92.1989 26.1577 91.4574 26.0938 89.6676 26.3239C87.8459 26.5604 85.858 26.9631 85.858 29.2131C85.858 31.1307 87.3409 32.2301 89.2074 32.2301ZM89.4375 30.875C88.2358 30.875 87.3665 30.3381 87.3665 29.2898C87.3665 28.1392 88.4148 27.7812 89.5909 27.6278C90.2301 27.5511 91.9432 27.3722 92.1989 27.0653V28.446C92.1989 29.6733 91.2273 30.875 89.4375 30.875ZM100.731 22.1818H98.6341V19.8295H97.1255V22.1818H95.6426V23.4602H97.1255V29.5966C97.1255 31.3097 98.5062 32.1278 99.7846 32.1278C100.347 32.1278 100.705 32.0256 100.91 31.9489L100.603 30.5938C100.475 30.6193 100.27 30.6705 99.938 30.6705C99.2733 30.6705 98.6341 30.4659 98.6341 29.1875V23.4602H100.731V22.1818ZM105.889 32.2301C107.602 32.2301 108.497 31.3097 108.804 30.6705H108.881V32H110.389V25.5312C110.389 22.4119 108.011 22.054 106.758 22.054C105.275 22.054 103.588 22.5653 102.821 24.3551L104.253 24.8665C104.585 24.1506 105.371 23.3835 106.809 23.3835C108.197 23.3835 108.881 24.1186 108.881 25.3778V25.429C108.881 26.1577 108.139 26.0938 106.349 26.3239C104.528 26.5604 102.54 26.9631 102.54 29.2131C102.54 31.1307 104.023 32.2301 105.889 32.2301ZM106.119 30.875C104.917 30.875 104.048 30.3381 104.048 29.2898C104.048 28.1392 105.096 27.7812 106.273 27.6278C106.912 27.5511 108.625 27.3722 108.881 27.0653V28.446C108.881 29.6733 107.909 30.875 106.119 30.875ZM121.912 32.2045C123.804 32.2045 124.444 31.0284 124.776 30.4915H124.955V32H126.412V18.9091H124.904V23.7415H124.776C124.444 23.2301 123.855 22.054 121.938 22.054C119.458 22.054 117.745 24.0227 117.745 27.1165C117.745 30.2358 119.458 32.2045 121.912 32.2045ZM122.117 30.8494C120.225 30.8494 119.253 29.1875 119.253 27.0909C119.253 25.0199 120.199 23.4091 122.117 23.4091C123.958 23.4091 124.929 24.892 124.929 27.0909C124.929 29.3153 123.932 30.8494 122.117 30.8494ZM129.385 32H130.893V22.1818H129.385V32ZM130.152 20.5455C130.74 20.5455 131.225 20.0852 131.225 19.5227C131.225 18.9602 130.74 18.5 130.152 18.5C129.564 18.5 129.078 18.9602 129.078 19.5227C129.078 20.0852 129.564 20.5455 130.152 20.5455ZM133.656 32H135.165V25.7869C135.165 24.4574 136.213 23.4858 137.645 23.4858C138.047 23.4858 138.463 23.5625 138.565 23.5881V22.054C138.393 22.0412 137.996 22.0284 137.773 22.0284C136.596 22.0284 135.574 22.6932 135.216 23.6648H135.113V22.1818H133.656V32ZM140.353 32H141.862V22.1818H140.353V32ZM141.12 20.5455C141.708 20.5455 142.194 20.0852 142.194 19.5227C142.194 18.9602 141.708 18.5 141.12 18.5C140.532 18.5 140.047 18.9602 140.047 19.5227C140.047 20.0852 140.532 20.5455 141.12 20.5455Z" fill="black"/>
<path d="M74.1222 128L75.4389 124.293H80.7315L82.0483 128H83.7102L78.9034 114.909H77.267L72.4602 128H74.1222ZM75.9375 122.886L78.0341 116.98H78.1364L80.233 122.886H75.9375ZM87.0533 114.909H85.5447V128H87.0533V114.909ZM92.7054 128.23C94.4185 128.23 95.3134 127.31 95.6202 126.67H95.6969V128H97.2054V121.531C97.2054 118.412 94.8276 118.054 93.5748 118.054C92.0918 118.054 90.4043 118.565 89.6373 120.355L91.0691 120.866C91.4015 120.151 92.1877 119.384 93.6259 119.384C95.013 119.384 95.6969 120.119 95.6969 121.378V121.429C95.6969 122.158 94.9554 122.094 93.1657 122.324C91.3439 122.56 89.356 122.963 89.356 125.213C89.356 127.131 90.839 128.23 92.7054 128.23ZM92.9355 126.875C91.7338 126.875 90.8645 126.338 90.8645 125.29C90.8645 124.139 91.9128 123.781 93.089 123.628C93.7282 123.551 95.4412 123.372 95.6969 123.065V124.446C95.6969 125.673 94.7253 126.875 92.9355 126.875ZM99.9588 128H101.467V121.864C101.467 120.425 102.516 119.409 103.692 119.409C104.836 119.409 105.635 120.157 105.635 121.276V128H107.169V121.608C107.169 120.342 107.962 119.409 109.342 119.409C110.416 119.409 111.337 119.978 111.337 121.429V128H112.845V121.429C112.845 119.121 111.605 118.054 109.854 118.054C108.447 118.054 107.418 118.7 106.913 119.716H106.811C106.325 118.668 105.469 118.054 104.178 118.054C102.899 118.054 101.953 118.668 101.544 119.716H101.416V118.182H99.9588V128ZM118.493 128.23C120.206 128.23 121.1 127.31 121.407 126.67H121.484V128H122.993V121.531C122.993 118.412 120.615 118.054 119.362 118.054C117.879 118.054 116.191 118.565 115.424 120.355L116.856 120.866C117.189 120.151 117.975 119.384 119.413 119.384C120.8 119.384 121.484 120.119 121.484 121.378V121.429C121.484 122.158 120.743 122.094 118.953 122.324C117.131 122.56 115.143 122.963 115.143 125.213C115.143 127.131 116.626 128.23 118.493 128.23ZM118.723 126.875C117.521 126.875 116.652 126.338 116.652 125.29C116.652 124.139 117.7 123.781 118.876 123.628C119.515 123.551 121.228 123.372 121.484 123.065V124.446C121.484 125.673 120.512 126.875 118.723 126.875ZM130.016 118.182H127.919V115.83H126.411V118.182H124.928V119.46H126.411V125.597C126.411 127.31 127.791 128.128 129.07 128.128C129.632 128.128 129.99 128.026 130.195 127.949L129.888 126.594C129.76 126.619 129.556 126.67 129.223 126.67C128.558 126.67 127.919 126.466 127.919 125.188V119.46H130.016V118.182Z" fill="black"/>
<path d="M77.625 224C81.6136 224 83.8636 221.52 83.8636 217.429C83.8636 213.364 81.6136 210.909 77.804 210.909H73.5852V224H77.625ZM75.1705 222.594V212.315H77.7017C80.7699 212.315 82.3295 214.259 82.3295 217.429C82.3295 220.625 80.7699 222.594 77.5227 222.594H75.1705ZM89.2074 224.23C90.9205 224.23 91.8153 223.31 92.1222 222.67H92.1989V224H93.7074V217.531C93.7074 214.412 91.3295 214.054 90.0767 214.054C88.5938 214.054 86.9062 214.565 86.1392 216.355L87.571 216.866C87.9034 216.151 88.6896 215.384 90.1278 215.384C91.5149 215.384 92.1989 216.119 92.1989 217.378V217.429C92.1989 218.158 91.4574 218.094 89.6676 218.324C87.8459 218.56 85.858 218.963 85.858 221.213C85.858 223.131 87.3409 224.23 89.2074 224.23ZM89.4375 222.875C88.2358 222.875 87.3665 222.338 87.3665 221.29C87.3665 220.139 88.4148 219.781 89.5909 219.628C90.2301 219.551 91.9432 219.372 92.1989 219.065V220.446C92.1989 221.673 91.2273 222.875 89.4375 222.875ZM100.731 214.182H98.6341V211.83H97.1255V214.182H95.6426V215.46H97.1255V221.597C97.1255 223.31 98.5062 224.128 99.7846 224.128C100.347 224.128 100.705 224.026 100.91 223.949L100.603 222.594C100.475 222.619 100.27 222.67 99.938 222.67C99.2733 222.67 98.6341 222.466 98.6341 221.188V215.46H100.731V214.182ZM105.889 224.23C107.602 224.23 108.497 223.31 108.804 222.67H108.881V224H110.389V217.531C110.389 214.412 108.011 214.054 106.758 214.054C105.275 214.054 103.588 214.565 102.821 216.355L104.253 216.866C104.585 216.151 105.371 215.384 106.809 215.384C108.197 215.384 108.881 216.119 108.881 217.378V217.429C108.881 218.158 108.139 218.094 106.349 218.324C104.528 218.56 102.54 218.963 102.54 221.213C102.54 223.131 104.023 224.23 105.889 224.23ZM106.119 222.875C104.917 222.875 104.048 222.338 104.048 221.29C104.048 220.139 105.096 219.781 106.273 219.628C106.912 219.551 108.625 219.372 108.881 219.065V220.446C108.881 221.673 107.909 222.875 106.119 222.875ZM117.694 212.315H121.81V224H123.395V212.315H127.512V210.909H117.694V212.315ZM131.307 224.23C133.02 224.23 133.915 223.31 134.222 222.67H134.298V224H135.807V217.531C135.807 214.412 133.429 214.054 132.176 214.054C130.693 214.054 129.006 214.565 128.239 216.355L129.671 216.866C130.003 216.151 130.789 215.384 132.227 215.384C133.615 215.384 134.298 216.119 134.298 217.378V217.429C134.298 218.158 133.557 218.094 131.767 218.324C129.945 218.56 127.958 218.963 127.958 221.213C127.958 223.131 129.441 224.23 131.307 224.23ZM131.537 222.875C130.335 222.875 129.466 222.338 129.466 221.29C129.466 220.139 130.514 219.781 131.691 219.628C132.33 219.551 134.043 219.372 134.298 219.065V220.446C134.298 221.673 133.327 222.875 131.537 222.875ZM138.56 224H140.069V217.864C140.069 216.425 141.117 215.409 142.293 215.409C143.438 215.409 144.237 216.157 144.237 217.276V224H145.771V217.608C145.771 216.342 146.563 215.409 147.944 215.409C149.018 215.409 149.938 215.978 149.938 217.429V224H151.447V217.429C151.447 215.121 150.207 214.054 148.455 214.054C147.049 214.054 146.02 214.7 145.515 215.716H145.413C144.927 214.668 144.07 214.054 142.779 214.054C141.501 214.054 140.555 214.668 140.146 215.716H140.018V214.182H138.56V224ZM154.409 224H155.867V222.491H156.046C156.378 223.028 157.017 224.205 158.909 224.205C161.364 224.205 163.077 222.236 163.077 219.116C163.077 216.023 161.364 214.054 158.884 214.054C156.966 214.054 156.378 215.23 156.046 215.741H155.918V210.909H154.409V224ZM155.892 219.091C155.892 216.892 156.864 215.409 158.705 215.409C160.623 215.409 161.569 217.02 161.569 219.091C161.569 221.188 160.597 222.849 158.705 222.849C156.89 222.849 155.892 221.315 155.892 219.091ZM168.274 224.23C169.987 224.23 170.882 223.31 171.189 222.67H171.265V224H172.774V217.531C172.774 214.412 170.396 214.054 169.143 214.054C167.66 214.054 165.973 214.565 165.206 216.355L166.637 216.866C166.97 216.151 167.756 215.384 169.194 215.384C170.581 215.384 171.265 216.119 171.265 217.378V217.429C171.265 218.158 170.524 218.094 168.734 218.324C166.912 218.56 164.924 218.963 164.924 221.213C164.924 223.131 166.407 224.23 168.274 224.23ZM168.504 222.875C167.302 222.875 166.433 222.338 166.433 221.29C166.433 220.139 167.481 219.781 168.657 219.628C169.297 219.551 171.01 219.372 171.265 219.065V220.446C171.265 221.673 170.294 222.875 168.504 222.875ZM177.036 218.094C177.036 216.381 178.129 215.409 179.618 215.409C181.037 215.409 181.894 216.304 181.894 217.864V224H183.402V217.761C183.402 215.237 182.06 214.054 180.053 214.054C178.506 214.054 177.624 214.7 177.164 215.716H177.036V210.909H175.527V224H177.036V218.094ZM189.051 224.23C190.764 224.23 191.659 223.31 191.966 222.67H192.043V224H193.551V217.531C193.551 214.412 191.173 214.054 189.92 214.054C188.438 214.054 186.75 214.565 185.983 216.355L187.415 216.866C187.747 216.151 188.533 215.384 189.972 215.384C191.359 215.384 192.043 216.119 192.043 217.378V217.429C192.043 218.158 191.301 218.094 189.511 218.324C187.69 218.56 185.702 218.963 185.702 221.213C185.702 223.131 187.185 224.23 189.051 224.23ZM189.281 222.875C188.08 222.875 187.21 222.338 187.21 221.29C187.21 220.139 188.259 219.781 189.435 219.628C190.074 219.551 191.787 219.372 192.043 219.065V220.446C192.043 221.673 191.071 222.875 189.281 222.875ZM197.813 218.094C197.813 216.381 198.874 215.409 200.319 215.409C201.719 215.409 202.569 216.323 202.569 217.864V224H204.077V217.761C204.077 215.256 202.741 214.054 200.753 214.054C199.27 214.054 198.35 214.719 197.89 215.716H197.762V214.182H196.305V224H197.813V218.094Z" fill="black"/>
<path d="M73.5852 320H81.2557V318.594H75.1705V306.909H73.5852V320ZM87.6222 320.205C89.6165 320.205 91.0739 319.207 91.5341 317.724L90.0767 317.315C89.6932 318.338 88.8047 318.849 87.6222 318.849C85.8516 318.849 84.6307 317.705 84.5604 315.602H91.6875V314.963C91.6875 311.307 89.5142 310.054 87.4688 310.054C84.8097 310.054 83.0455 312.151 83.0455 315.168C83.0455 318.185 84.7841 320.205 87.6222 320.205ZM84.5604 314.298C84.6626 312.771 85.7429 311.409 87.4688 311.409C89.1051 311.409 90.1534 312.636 90.1534 314.298H84.5604ZM93.9822 320H95.4908V313.864C95.4908 312.425 96.5391 311.409 97.7152 311.409C98.8594 311.409 99.6584 312.157 99.6584 313.276V320H101.192V313.608C101.192 312.342 101.985 311.409 103.366 311.409C104.44 311.409 105.36 311.978 105.36 313.429V320H106.869V313.429C106.869 311.121 105.629 310.054 103.877 310.054C102.471 310.054 101.442 310.7 100.937 311.716H100.835C100.349 310.668 99.4922 310.054 98.201 310.054C96.9226 310.054 95.9766 310.668 95.5675 311.716H95.4396V310.182H93.9822V320ZM109.831 320H111.289V318.491H111.468C111.8 319.028 112.439 320.205 114.331 320.205C116.786 320.205 118.499 318.236 118.499 315.116C118.499 312.023 116.786 310.054 114.306 310.054C112.388 310.054 111.8 311.23 111.468 311.741H111.34V306.909H109.831V320ZM111.314 315.091C111.314 312.892 112.286 311.409 114.127 311.409C116.044 311.409 116.99 313.02 116.99 315.091C116.99 317.188 116.019 318.849 114.127 318.849C112.311 318.849 111.314 317.315 111.314 315.091ZM123.696 320.23C125.409 320.23 126.304 319.31 126.61 318.67H126.687V320H128.196V313.531C128.196 310.412 125.818 310.054 124.565 310.054C123.082 310.054 121.395 310.565 120.627 312.355L122.059 312.866C122.392 312.151 123.178 311.384 124.616 311.384C126.003 311.384 126.687 312.119 126.687 313.378V313.429C126.687 314.158 125.946 314.094 124.156 314.324C122.334 314.56 120.346 314.963 120.346 317.213C120.346 319.131 121.829 320.23 123.696 320.23ZM123.926 318.875C122.724 318.875 121.855 318.338 121.855 317.29C121.855 316.139 122.903 315.781 124.079 315.628C124.718 315.551 126.431 315.372 126.687 315.065V316.446C126.687 317.673 125.716 318.875 123.926 318.875ZM130.949 320H132.458V313.787C132.458 312.457 133.506 311.486 134.938 311.486C135.34 311.486 135.756 311.562 135.858 311.588V310.054C135.686 310.041 135.289 310.028 135.066 310.028C133.889 310.028 132.867 310.693 132.509 311.665H132.406V310.182H130.949V320ZM142.913 320H144.499V315.756L146.135 313.915L150.686 320H152.604L147.107 312.815L152.604 306.909H150.533L144.652 313.403H144.499V306.909H142.913V320ZM157.719 320.205C160.378 320.205 162.168 318.185 162.168 315.142C162.168 312.074 160.378 310.054 157.719 310.054C155.06 310.054 153.27 312.074 153.27 315.142C153.27 318.185 155.06 320.205 157.719 320.205ZM157.719 318.849C155.699 318.849 154.779 317.111 154.779 315.142C154.779 313.173 155.699 311.409 157.719 311.409C159.739 311.409 160.659 313.173 160.659 315.142C160.659 317.111 159.739 318.849 157.719 318.849ZM164.471 320H165.979V313.864C165.979 312.425 167.027 311.409 168.203 311.409C169.348 311.409 170.147 312.157 170.147 313.276V320H171.681V313.608C171.681 312.342 172.473 311.409 173.854 311.409C174.928 311.409 175.848 311.978 175.848 313.429V320H177.357V313.429C177.357 311.121 176.117 310.054 174.365 310.054C172.959 310.054 171.93 310.7 171.425 311.716H171.323C170.837 310.668 169.98 310.054 168.689 310.054C167.411 310.054 166.465 310.668 166.056 311.716H165.928V310.182H164.471V320ZM180.115 320H181.624V310.182H180.115V320ZM180.882 308.545C181.47 308.545 181.956 308.085 181.956 307.523C181.956 306.96 181.47 306.5 180.882 306.5C180.294 306.5 179.808 306.96 179.808 307.523C179.808 308.085 180.294 308.545 180.882 308.545ZM188.656 310.182H186.56V307.83H185.051V310.182H183.568V311.46H185.051V317.597C185.051 319.31 186.432 320.128 187.71 320.128C188.273 320.128 188.631 320.026 188.835 319.949L188.529 318.594C188.401 318.619 188.196 318.67 187.864 318.67C187.199 318.67 186.56 318.466 186.56 317.188V311.46H188.656V310.182ZM190.926 320H192.434V313.864C192.434 312.425 193.482 311.409 194.659 311.409C195.803 311.409 196.602 312.157 196.602 313.276V320H198.136V313.608C198.136 312.342 198.928 311.409 200.309 311.409C201.383 311.409 202.303 311.978 202.303 313.429V320H203.812V313.429C203.812 311.121 202.572 310.054 200.82 310.054C199.414 310.054 198.385 310.7 197.88 311.716H197.778C197.292 310.668 196.436 310.054 195.144 310.054C193.866 310.054 192.92 310.668 192.511 311.716H192.383V310.182H190.926V320ZM210.687 320.205C212.681 320.205 214.138 319.207 214.599 317.724L213.141 317.315C212.758 318.338 211.869 318.849 210.687 318.849C208.916 318.849 207.695 317.705 207.625 315.602H214.752V314.963C214.752 311.307 212.579 310.054 210.533 310.054C207.874 310.054 206.11 312.151 206.11 315.168C206.11 318.185 207.849 320.205 210.687 320.205ZM207.625 314.298C207.727 312.771 208.807 311.409 210.533 311.409C212.17 311.409 213.218 312.636 213.218 314.298H207.625ZM218.555 314.094C218.555 312.381 219.616 311.409 221.061 311.409C222.461 311.409 223.311 312.323 223.311 313.864V320H224.819V313.761C224.819 311.256 223.483 310.054 221.496 310.054C220.013 310.054 219.092 310.719 218.632 311.716H218.504V310.182H217.047V320H218.555V314.094Z" fill="black"/>
<path d="M38.9395 190.66V197.732C38.9395 198.951 38.3867 199.561 37.2812 199.561C37.043 199.561 36.8223 199.525 36.6191 199.455V198.588C36.7441 198.619 36.9082 198.635 37.1113 198.635C37.3535 198.635 37.5371 198.568 37.6621 198.436C37.791 198.307 37.8555 198.08 37.8555 197.756V190.66H38.9395ZM37.7441 188.979C37.7441 188.807 37.7969 188.66 37.9023 188.539C38.0117 188.414 38.1699 188.352 38.377 188.352C38.5879 188.352 38.748 188.412 38.8574 188.533C38.9668 188.654 39.0215 188.803 39.0215 188.979C39.0215 189.154 38.9668 189.301 38.8574 189.418C38.748 189.535 38.5879 189.594 38.377 189.594C38.166 189.594 38.0078 189.535 37.9023 189.418C37.7969 189.301 37.7441 189.154 37.7441 188.979ZM44.6055 196.373C44.1836 196.869 43.5645 197.117 42.748 197.117C42.0723 197.117 41.5566 196.922 41.2012 196.531C40.8496 196.137 40.6719 195.555 40.668 194.785V190.66H41.752V194.756C41.752 195.717 42.1426 196.197 42.9238 196.197C43.752 196.197 44.3027 195.889 44.5762 195.271V190.66H45.6602V197H44.6289L44.6055 196.373ZM50.377 191.633C50.2129 191.605 50.0352 191.592 49.8438 191.592C49.1328 191.592 48.6504 191.895 48.3965 192.5V197H47.3125V190.66H48.3672L48.3848 191.393C48.7402 190.826 49.2441 190.543 49.8965 190.543C50.1074 190.543 50.2676 190.57 50.377 190.625V191.633ZM55.293 196.373C54.8711 196.869 54.252 197.117 53.4355 197.117C52.7598 197.117 52.2441 196.922 51.8887 196.531C51.5371 196.137 51.3594 195.555 51.3555 194.785V190.66H52.4395V194.756C52.4395 195.717 52.8301 196.197 53.6113 196.197C54.4395 196.197 54.9902 195.889 55.2637 195.271V190.66H56.3477V197H55.3164L55.293 196.373ZM61.6914 195.318C61.6914 195.025 61.5801 194.799 61.3574 194.639C61.1387 194.475 60.7539 194.334 60.2031 194.217C59.6562 194.1 59.2207 193.959 58.8965 193.795C58.5762 193.631 58.3379 193.436 58.1816 193.209C58.0293 192.982 57.9531 192.713 57.9531 192.4C57.9531 191.881 58.1719 191.441 58.6094 191.082C59.0508 190.723 59.6133 190.543 60.2969 190.543C61.0156 190.543 61.5977 190.729 62.043 191.1C62.4922 191.471 62.7168 191.945 62.7168 192.523H61.627C61.627 192.227 61.5 191.971 61.2461 191.756C60.9961 191.541 60.6797 191.434 60.2969 191.434C59.9023 191.434 59.5938 191.52 59.3711 191.691C59.1484 191.863 59.0371 192.088 59.0371 192.365C59.0371 192.627 59.1406 192.824 59.3477 192.957C59.5547 193.09 59.9277 193.217 60.4668 193.338C61.0098 193.459 61.4492 193.604 61.7852 193.771C62.1211 193.939 62.3691 194.143 62.5293 194.381C62.6934 194.615 62.7754 194.902 62.7754 195.242C62.7754 195.809 62.5488 196.264 62.0957 196.607C61.6426 196.947 61.0547 197.117 60.332 197.117C59.8242 197.117 59.375 197.027 58.9844 196.848C58.5938 196.668 58.2871 196.418 58.0645 196.098C57.8457 195.773 57.7363 195.424 57.7363 195.049H58.8203C58.8398 195.412 58.9844 195.701 59.2539 195.916C59.5273 196.127 59.8867 196.232 60.332 196.232C60.7422 196.232 61.0703 196.15 61.3164 195.986C61.5664 195.818 61.6914 195.596 61.6914 195.318ZM68.1016 197C68.0391 196.875 67.9883 196.652 67.9492 196.332C67.4453 196.855 66.8438 197.117 66.1445 197.117C65.5195 197.117 65.0059 196.941 64.6035 196.59C64.2051 196.234 64.0059 195.785 64.0059 195.242C64.0059 194.582 64.2559 194.07 64.7559 193.707C65.2598 193.34 65.9668 193.156 66.877 193.156H67.9316V192.658C67.9316 192.279 67.8184 191.979 67.5918 191.756C67.3652 191.529 67.0312 191.416 66.5898 191.416C66.2031 191.416 65.8789 191.514 65.6172 191.709C65.3555 191.904 65.2246 192.141 65.2246 192.418H64.1348C64.1348 192.102 64.2461 191.797 64.4688 191.504C64.6953 191.207 65 190.973 65.3828 190.801C65.7695 190.629 66.1934 190.543 66.6543 190.543C67.3848 190.543 67.957 190.727 68.3711 191.094C68.7852 191.457 69 191.959 69.0156 192.6V195.518C69.0156 196.1 69.0898 196.562 69.2383 196.906V197H68.1016ZM66.3027 196.174C66.6426 196.174 66.9648 196.086 67.2695 195.91C67.5742 195.734 67.7949 195.506 67.9316 195.225V193.924H67.082C65.7539 193.924 65.0898 194.312 65.0898 195.09C65.0898 195.43 65.2031 195.695 65.4297 195.887C65.6562 196.078 65.9473 196.174 66.3027 196.174ZM71.7402 190.66L71.7754 191.457C72.2598 190.848 72.8926 190.543 73.6738 190.543C75.0137 190.543 75.6895 191.299 75.7012 192.811V197H74.6172V192.805C74.6133 192.348 74.5078 192.01 74.3008 191.791C74.0977 191.572 73.7793 191.463 73.3457 191.463C72.9941 191.463 72.6855 191.557 72.4199 191.744C72.1543 191.932 71.9473 192.178 71.7988 192.482V197H70.7148V190.66H71.7402ZM77.3008 198.699L76.6855 198.277C77.0527 197.766 77.2441 197.238 77.2598 196.695V195.717H78.3203V196.566C78.3203 196.961 78.2227 197.355 78.0273 197.75C77.8359 198.145 77.5938 198.461 77.3008 198.699ZM86.582 197C86.5195 196.875 86.4688 196.652 86.4297 196.332C85.9258 196.855 85.3242 197.117 84.625 197.117C84 197.117 83.4863 196.941 83.084 196.59C82.6855 196.234 82.4863 195.785 82.4863 195.242C82.4863 194.582 82.7363 194.07 83.2363 193.707C83.7402 193.34 84.4473 193.156 85.3574 193.156H86.4121V192.658C86.4121 192.279 86.2988 191.979 86.0723 191.756C85.8457 191.529 85.5117 191.416 85.0703 191.416C84.6836 191.416 84.3594 191.514 84.0977 191.709C83.8359 191.904 83.7051 192.141 83.7051 192.418H82.6152C82.6152 192.102 82.7266 191.797 82.9492 191.504C83.1758 191.207 83.4805 190.973 83.8633 190.801C84.25 190.629 84.6738 190.543 85.1348 190.543C85.8652 190.543 86.4375 190.727 86.8516 191.094C87.2656 191.457 87.4805 191.959 87.4961 192.6V195.518C87.4961 196.1 87.5703 196.562 87.7188 196.906V197H86.582ZM84.7832 196.174C85.123 196.174 85.4453 196.086 85.75 195.91C86.0547 195.734 86.2754 195.506 86.4121 195.225V193.924H85.5625C84.2344 193.924 83.5703 194.312 83.5703 195.09C83.5703 195.43 83.6836 195.695 83.9102 195.887C84.1367 196.078 84.4277 196.174 84.7832 196.174ZM90.2207 190.66L90.2559 191.457C90.7402 190.848 91.373 190.543 92.1543 190.543C93.4941 190.543 94.1699 191.299 94.1816 192.811V197H93.0977V192.805C93.0938 192.348 92.9883 192.01 92.7812 191.791C92.5781 191.572 92.2598 191.463 91.8262 191.463C91.4746 191.463 91.166 191.557 90.9004 191.744C90.6348 191.932 90.4277 192.178 90.2793 192.482V197H89.1953V190.66H90.2207ZM95.5586 193.777C95.5586 192.789 95.7871 192.004 96.2441 191.422C96.7012 190.836 97.3066 190.543 98.0605 190.543C98.834 190.543 99.4375 190.816 99.8711 191.363L99.9238 190.66H100.914V196.848C100.914 197.668 100.67 198.314 100.182 198.787C99.6973 199.26 99.0449 199.496 98.2246 199.496C97.7676 199.496 97.3203 199.398 96.8828 199.203C96.4453 199.008 96.1113 198.74 95.8809 198.4L96.4434 197.75C96.9082 198.324 97.4766 198.611 98.1484 198.611C98.6758 198.611 99.0859 198.463 99.3789 198.166C99.6758 197.869 99.8242 197.451 99.8242 196.912V196.367C99.3906 196.867 98.7988 197.117 98.0488 197.117C97.3066 197.117 96.7051 196.818 96.2441 196.221C95.7871 195.623 95.5586 194.809 95.5586 193.777ZM96.6484 193.9C96.6484 194.615 96.7949 195.178 97.0879 195.588C97.3809 195.994 97.791 196.197 98.3184 196.197C99.002 196.197 99.5039 195.887 99.8242 195.266V192.371C99.4922 191.766 98.9941 191.463 98.3301 191.463C97.8027 191.463 97.3906 191.668 97.0938 192.078C96.7969 192.488 96.6484 193.096 96.6484 193.9ZM104.324 194.064L103.645 194.773V197H102.561V188H103.645V193.443L104.225 192.746L106.199 190.66H107.518L105.051 193.309L107.805 197H106.533L104.324 194.064ZM112.551 197C112.488 196.875 112.438 196.652 112.398 196.332C111.895 196.855 111.293 197.117 110.594 197.117C109.969 197.117 109.455 196.941 109.053 196.59C108.654 196.234 108.455 195.785 108.455 195.242C108.455 194.582 108.705 194.07 109.205 193.707C109.709 193.34 110.416 193.156 111.326 193.156H112.381V192.658C112.381 192.279 112.268 191.979 112.041 191.756C111.814 191.529 111.48 191.416 111.039 191.416C110.652 191.416 110.328 191.514 110.066 191.709C109.805 191.904 109.674 192.141 109.674 192.418H108.584C108.584 192.102 108.695 191.797 108.918 191.504C109.145 191.207 109.449 190.973 109.832 190.801C110.219 190.629 110.643 190.543 111.104 190.543C111.834 190.543 112.406 190.727 112.82 191.094C113.234 191.457 113.449 191.959 113.465 192.6V195.518C113.465 196.1 113.539 196.562 113.688 196.906V197H112.551ZM110.752 196.174C111.092 196.174 111.414 196.086 111.719 195.91C112.023 195.734 112.244 195.506 112.381 195.225V193.924H111.531C110.203 193.924 109.539 194.312 109.539 195.09C109.539 195.43 109.652 195.695 109.879 195.887C110.105 196.078 110.396 196.174 110.752 196.174ZM116.635 189.125V190.66H117.818V191.498H116.635V195.43C116.635 195.684 116.688 195.875 116.793 196.004C116.898 196.129 117.078 196.191 117.332 196.191C117.457 196.191 117.629 196.168 117.848 196.121V197C117.562 197.078 117.285 197.117 117.016 197.117C116.531 197.117 116.166 196.971 115.92 196.678C115.674 196.385 115.551 195.969 115.551 195.43V191.498H114.396V190.66H115.551V189.125H116.635ZM123.004 197C122.941 196.875 122.891 196.652 122.852 196.332C122.348 196.855 121.746 197.117 121.047 197.117C120.422 197.117 119.908 196.941 119.506 196.59C119.107 196.234 118.908 195.785 118.908 195.242C118.908 194.582 119.158 194.07 119.658 193.707C120.162 193.34 120.869 193.156 121.779 193.156H122.834V192.658C122.834 192.279 122.721 191.979 122.494 191.756C122.268 191.529 121.934 191.416 121.492 191.416C121.105 191.416 120.781 191.514 120.52 191.709C120.258 191.904 120.127 192.141 120.127 192.418H119.037C119.037 192.102 119.148 191.797 119.371 191.504C119.598 191.207 119.902 190.973 120.285 190.801C120.672 190.629 121.096 190.543 121.557 190.543C122.287 190.543 122.859 190.727 123.273 191.094C123.688 191.457 123.902 191.959 123.918 192.6V195.518C123.918 196.1 123.992 196.562 124.141 196.906V197H123.004ZM121.205 196.174C121.545 196.174 121.867 196.086 122.172 195.91C122.477 195.734 122.697 195.506 122.834 195.225V193.924H121.984C120.656 193.924 119.992 194.312 119.992 195.09C119.992 195.43 120.105 195.695 120.332 195.887C120.559 196.078 120.85 196.174 121.205 196.174ZM126.643 190.66L126.678 191.457C127.162 190.848 127.795 190.543 128.576 190.543C129.916 190.543 130.592 191.299 130.604 192.811V197H129.52V192.805C129.516 192.348 129.41 192.01 129.203 191.791C129 191.572 128.682 191.463 128.248 191.463C127.896 191.463 127.588 191.557 127.322 191.744C127.057 191.932 126.85 192.178 126.701 192.482V197H125.617V190.66H126.643ZM140.582 193.9C140.582 194.869 140.359 195.648 139.914 196.238C139.469 196.824 138.871 197.117 138.121 197.117C137.32 197.117 136.701 196.834 136.264 196.268L136.211 197H135.215V188H136.299V191.357C136.736 190.814 137.34 190.543 138.109 190.543C138.879 190.543 139.482 190.834 139.92 191.416C140.361 191.998 140.582 192.795 140.582 193.807V193.9ZM139.498 193.777C139.498 193.039 139.355 192.469 139.07 192.066C138.785 191.664 138.375 191.463 137.84 191.463C137.125 191.463 136.611 191.795 136.299 192.459V195.201C136.631 195.865 137.148 196.197 137.852 196.197C138.371 196.197 138.775 195.996 139.064 195.594C139.354 195.191 139.498 194.586 139.498 193.777ZM144.584 197.117C143.725 197.117 143.025 196.836 142.486 196.273C141.947 195.707 141.678 194.951 141.678 194.006V193.807C141.678 193.178 141.797 192.617 142.035 192.125C142.277 191.629 142.613 191.242 143.043 190.965C143.477 190.684 143.945 190.543 144.449 190.543C145.273 190.543 145.914 190.814 146.371 191.357C146.828 191.9 147.057 192.678 147.057 193.689V194.141H142.762C142.777 194.766 142.959 195.271 143.307 195.658C143.658 196.041 144.104 196.232 144.643 196.232C145.025 196.232 145.35 196.154 145.615 195.998C145.881 195.842 146.113 195.635 146.312 195.377L146.975 195.893C146.443 196.709 145.646 197.117 144.584 197.117ZM144.449 191.434C144.012 191.434 143.645 191.594 143.348 191.914C143.051 192.23 142.867 192.676 142.797 193.25H145.973V193.168C145.941 192.617 145.793 192.191 145.527 191.891C145.262 191.586 144.902 191.434 144.449 191.434ZM151.381 191.633C151.217 191.605 151.039 191.592 150.848 191.592C150.137 191.592 149.654 191.895 149.4 192.5V197H148.316V190.66H149.371L149.389 191.393C149.744 190.826 150.248 190.543 150.9 190.543C151.111 190.543 151.271 190.57 151.381 190.625V191.633ZM157.738 193.9C157.738 194.865 157.518 195.643 157.076 196.232C156.635 196.822 156.037 197.117 155.283 197.117C154.514 197.117 153.908 196.873 153.467 196.385V199.438H152.383V190.66H153.373L153.426 191.363C153.867 190.816 154.48 190.543 155.266 190.543C156.027 190.543 156.629 190.83 157.07 191.404C157.516 191.979 157.738 192.777 157.738 193.801V193.9ZM156.654 193.777C156.654 193.062 156.502 192.498 156.197 192.084C155.893 191.67 155.475 191.463 154.943 191.463C154.287 191.463 153.795 191.754 153.467 192.336V195.365C153.791 195.943 154.287 196.232 154.955 196.232C155.475 196.232 155.887 196.027 156.191 195.617C156.5 195.203 156.654 194.59 156.654 193.777ZM163.035 197C162.973 196.875 162.922 196.652 162.883 196.332C162.379 196.855 161.777 197.117 161.078 197.117C160.453 197.117 159.939 196.941 159.537 196.59C159.139 196.234 158.939 195.785 158.939 195.242C158.939 194.582 159.189 194.07 159.689 193.707C160.193 193.34 160.9 193.156 161.811 193.156H162.865V192.658C162.865 192.279 162.752 191.979 162.525 191.756C162.299 191.529 161.965 191.416 161.523 191.416C161.137 191.416 160.812 191.514 160.551 191.709C160.289 191.904 160.158 192.141 160.158 192.418H159.068C159.068 192.102 159.18 191.797 159.402 191.504C159.629 191.207 159.934 190.973 160.316 190.801C160.703 190.629 161.127 190.543 161.588 190.543C162.318 190.543 162.891 190.727 163.305 191.094C163.719 191.457 163.934 191.959 163.949 192.6V195.518C163.949 196.1 164.023 196.562 164.172 196.906V197H163.035ZM161.236 196.174C161.576 196.174 161.898 196.086 162.203 195.91C162.508 195.734 162.729 195.506 162.865 195.225V193.924H162.016C160.688 193.924 160.023 194.312 160.023 195.09C160.023 195.43 160.137 195.695 160.363 195.887C160.59 196.078 160.881 196.174 161.236 196.174Z" fill="white"/>
</svg>
