<svg width="185" height="49" viewBox="0 0 185 49" fill="none" xmlns="http://www.w3.org/2000/svg">
<path d="M156.05 13.6959C157.451 9.38503 163.549 9.38503 164.95 13.6959C165.576 15.6238 167.373 16.9291 169.4 16.9291C173.933 16.9291 175.818 22.7293 172.15 25.3936C170.51 26.5851 169.824 28.6971 170.451 30.625C171.851 34.9359 166.917 38.5207 163.25 35.8564C161.61 34.6649 159.39 34.6649 157.75 35.8564C154.083 38.5207 149.149 34.9359 150.549 30.625C151.176 28.6971 150.49 26.5851 148.85 25.3936C145.182 22.7293 147.067 16.9291 151.6 16.9291C153.627 16.9291 155.424 15.6238 156.05 13.6959Z" fill="#C4C4C4"/>
<path d="M20.0499 13.6959C21.4506 9.38503 27.5494 9.38503 28.9501 13.6959C29.5765 15.6238 31.373 16.9291 33.4001 16.9291C37.9329 16.9291 39.8175 22.7293 36.1504 25.3936C34.5105 26.5851 33.8243 28.6971 34.4507 30.625C35.8514 34.9359 30.9174 38.5207 27.2503 35.8564C25.6103 34.6649 23.3897 34.6649 21.7497 35.8564C18.0826 38.5207 13.1486 34.9359 14.5493 30.625C15.1757 28.6971 14.4895 26.5851 12.8496 25.3936C9.1825 22.7293 11.0671 16.9291 15.5999 16.9291C17.627 16.9291 19.4235 15.6238 20.0499 13.6959Z" fill="#FFD300"/>
<path d="M54.0499 13.6959C55.4506 9.38503 61.5494 9.38503 62.9501 13.6959C63.5765 15.6238 65.373 16.9291 67.4001 16.9291C71.9329 16.9291 73.8175 22.7293 70.1504 25.3936C68.5105 26.5851 67.8243 28.6971 68.4507 30.625C69.8514 34.9359 64.9174 38.5207 61.2503 35.8564C59.6103 34.6649 57.3897 34.6649 55.7497 35.8564C52.0826 38.5207 47.1486 34.9359 48.5493 30.625C49.1757 28.6971 48.4895 26.5851 46.8496 25.3936C43.1825 22.7293 45.0671 16.9291 49.5999 16.9291C51.627 16.9291 53.4235 15.6238 54.0499 13.6959Z" fill="#FFD300"/>
<path d="M88.0499 13.6959C89.4506 9.38503 95.5494 9.38503 96.9501 13.6959C97.5765 15.6238 99.373 16.9291 101.4 16.9291C105.933 16.9291 107.818 22.7293 104.15 25.3936C102.51 26.5851 101.824 28.6971 102.451 30.625C103.851 34.9359 98.9174 38.5207 95.2503 35.8564C93.6103 34.6649 91.3897 34.6649 89.7497 35.8564C86.0826 38.5207 81.1486 34.9359 82.5493 30.625C83.1757 28.6971 82.4895 26.5851 80.8496 25.3936C77.1825 22.7293 79.0671 16.9291 83.5999 16.9291C85.627 16.9291 87.4235 15.6238 88.0499 13.6959Z" fill="#FFD300"/>
<path d="M122.05 13.6959C123.451 9.38503 129.549 9.38503 130.95 13.6959C131.576 15.6238 133.373 16.9291 135.4 16.9291C139.933 16.9291 141.818 22.7293 138.15 25.3936C136.51 26.5851 135.824 28.6971 136.451 30.625C137.851 34.9359 132.917 38.5207 129.25 35.8564C127.61 34.6649 125.39 34.6649 123.75 35.8564C120.083 38.5207 115.149 34.9359 116.549 30.625C117.176 28.6971 116.49 26.5851 114.85 25.3936C111.182 22.7293 113.067 16.9291 117.6 16.9291C119.627 16.9291 121.424 15.6238 122.05 13.6959Z" fill="#FFD300"/>
</svg>
